<?xml version="1.0" encoding="UTF-8" standalone="no"?>
<!-- Created with Inkscape (http://www.inkscape.org/) -->

<svg
   width="1024"
   height="1024"
   viewBox="0 0 270.93334 270.93333"
   version="1.1"
   id="svg1"
   xml:space="preserve"
   sodipodi:docname="icon.inkscape.svg"
   inkscape:version="1.4 (e7c3feb100, 2024-10-09)"
   xmlns:inkscape="http://www.inkscape.org/namespaces/inkscape"
   xmlns:sodipodi="http://sodipodi.sourceforge.net/DTD/sodipodi-0.dtd"
   xmlns="http://www.w3.org/2000/svg"
   xmlns:svg="http://www.w3.org/2000/svg"><sodipodi:namedview
     id="namedview1"
     pagecolor="#ffffff"
     bordercolor="#000000"
     borderopacity="0.25"
     inkscape:showpageshadow="2"
     inkscape:pageopacity="0.0"
     inkscape:pagecheckerboard="0"
     inkscape:deskcolor="#d1d1d1"
     inkscape:document-units="mm"
     inkscape:zoom="0.53156348"
     inkscape:cx="317.93004"
     inkscape:cy="554.02602"
     inkscape:window-width="1920"
     inkscape:window-height="995"
     inkscape:window-x="0"
     inkscape:window-y="0"
     inkscape:window-maximized="1"
     inkscape:current-layer="layer1" /><defs
     id="defs1" /><g
     inkscape:label="icon"
     inkscape:groupmode="layer"
     id="layer1"
     transform="translate(-95.779165,-83.079165)"><rect
       style="fill:#ffffff;stroke-width:4.50001;stroke-linecap:round;stroke-linejoin:round;stroke-miterlimit:1.6;paint-order:markers stroke fill;fill-opacity:1"
       id="rect3"
       width="270.93332"
       height="270.93332"
       x="95.779175"
       y="83.07917"
       rx="0"
       ry="5.1819482"
       inkscape:label="BG" /><text
       xml:space="preserve"
       style="font-weight:600;font-size:105.332px;line-height:1.5;font-family:'Source Sans Pro';-inkscape-font-specification:'Source Sans Pro Semi-Bold';font-feature-settings:'ss02' off;text-align:start;text-decoration-color:#000000;letter-spacing:0px;word-spacing:0px;writing-mode:lr-tb;direction:ltr;text-orientation:upright;text-anchor:start;display:none;fill:#333333;stroke-width:4.50002;stroke-linecap:round;stroke-linejoin:round;stroke-miterlimit:1.6;paint-order:markers stroke fill"
       x="99.264832"
       y="176.67636"
       id="text3"
       inkscape:label="Debug-&gt;URL big"><tspan
         sodipodi:role="line"
         style="font-style:normal;font-variant:normal;font-weight:800;font-stretch:normal;font-size:105.332px;line-height:1.5;font-family:Iosevka;-inkscape-font-specification:'Iosevka Ultra-Bold';fill:#ececec;stroke-width:4.5"
         x="99.264832"
         y="176.67636"
         id="tspan6">Debug</tspan><tspan
         sodipodi:role="line"
         style="font-style:normal;font-variant:normal;font-weight:800;font-stretch:normal;font-size:105.332px;line-height:1.5;font-family:Iosevka;-inkscape-font-specification:'Iosevka Ultra-Bold';fill:#ececec;stroke-width:4.5"
         x="99.264832"
         y="336.99167"
         id="tspan7">-&gt;URL</tspan></text><text
       xml:space="preserve"
       style="font-weight:600;font-size:63.5405px;line-height:1;font-family:'Source Sans Pro';-inkscape-font-specification:'Source Sans Pro Semi-Bold';font-feature-settings:'ss02' off;text-align:start;text-decoration-color:#000000;letter-spacing:0px;word-spacing:0px;writing-mode:lr-tb;direction:ltr;text-orientation:upright;text-anchor:start;fill:none;stroke-width:4.50003;stroke-linecap:round;stroke-linejoin:round;stroke-miterlimit:1.6;paint-order:markers stroke fill"
       x="103.81396"
       y="250.3428"
       id="text9"
       transform="scale(0.89202922,1.1210395)"
       inkscape:label="Debug-&gt;URL"><tspan
         sodipodi:role="line"
         style="font-style:normal;font-variant:normal;font-weight:900;font-stretch:normal;font-size:63.5405px;line-height:1;font-family:Iosevka;-inkscape-font-specification:'Iosevka Heavy';letter-spacing:0px;fill:#333333;stroke-width:4.49998"
         x="103.81396"
         y="250.3428"
         id="tspan8">Debug</tspan><tspan
         sodipodi:role="line"
         style="font-style:normal;font-variant:normal;font-weight:900;font-stretch:normal;font-size:63.5405px;line-height:1;font-family:Iosevka;-inkscape-font-specification:'Iosevka Heavy';letter-spacing:0px;fill:#333333;stroke-width:4.49998"
         x="103.81396"
         y="315.28116"
         id="tspan9">-&gt;URL</tspan></text><g
       style="display:inline;fill:#333333;stroke-width:0.0687145"
       id="g1"
       transform="matrix(0.13613527,-0.13613527,0.13613527,0.13613527,300.95916,418.94903)"
       inkscape:label="link"><path
         d="M 450,-280 H 280 q -83,0 -141.5,-58.5 Q 80,-397 80,-480 80,-563 138.5,-621.5 197,-680 280,-680 h 170 v 60 H 280 q -58.33,0 -99.17,40.76 -40.83,40.77 -40.83,99 0,58.24 40.83,99.24 40.84,41 99.17,41 H 450 Z M 325,-450 v -60 h 310 v 60 z m 185,170 v -60 h 170 q 58.33,0 99.17,-40.76 40.83,-40.77 40.83,-99 Q 820,-538 779.17,-579 738.33,-620 680,-620 H 510 v -60 h 170 q 83,0 141.5,58.5 58.5,58.5 58.5,141.5 0,83 -58.5,141.5 Q 763,-280 680,-280 Z"
         id="path1"
         style="fill:#333333;stroke-width:0.0687145" /></g><g
       style="fill:#333333;stroke-width:0.0693612"
       id="g3"
       transform="matrix(-0.13486561,-0.13486561,0.13486561,-0.13486561,426.88362,128.38614)"
       inkscape:label="arrow"><path
         d="M 484.79527,-393.81739 243.80633,-634.80633 v 212 h -60 v -318 h 311 v 60 h -212 l 201.98894,201.98894 164.97424,-164.97425 42,43 z"
         id="path1-2"
         style="fill:#333333;stroke-width:0.0693612"
         sodipodi:nodetypes="cccccccccccc" /></g><g
       style="fill:#333333;stroke-width:0.0687145"
       id="g2"
       transform="matrix(0.19252435,0,0,0.19252435,64.975267,244.79962)"
       inkscape:label="debug"><path
         d="m 480,-180 q 72,0 123,-50.5 51,-50.5 51,-122.5 v -167 q 0,-72 -51,-122.5 -51,-50.5 -123,-50.5 -72,0 -123,50.5 -51,50.5 -51,122.5 v 167 q 0,72 51,122.5 51,50.5 123,50.5 z m -80,-140 h 160 v -60 H 400 Z m 0,-173 h 160 v -60 H 400 Z m 80,57 h 0.5 -0.5 0.5 -0.5 0.5 -0.5 0.5 z m 0,316 q -65,0 -121,-31 -56,-31 -83,-89 H 160 v -60 h 92 q -7,-26 -7,-52.5 V -406 h -85 v -60 h 85 q 0,-29 0.5,-57.5 0.5,-28.5 8.5,-56.5 h -94 v -60 h 120 q 14,-28 37,-49 23,-21 51,-35 l -77,-76 40,-40 94,94 q 28,-10 56.5,-10 28.5,0 56.5,10 l 94,-94 40,40 -76,76 q 28,14 49.5,35.5 21.5,21.5 37.5,48.5 h 117 v 60 h -94 q 9,28 8.5,56.5 -0.5,28.5 -0.5,57.5 h 86 v 60 h -86 q 0,27 0.5,53.5 0.5,26.5 -6.5,52.5 h 92 v 60 H 685 q -26,59 -82.5,89.5 Q 546,-120 480,-120 Z"
         id="path1-6"
         style="fill:#333333;stroke-width:0.0687145" /></g></g></svg>
